<?xml version="1.0" encoding="utf-8"?><svg xmlns="http://www.w3.org/2000/svg" xmlns:xlink="http://www.w3.org/1999/xlink" width="1920" height="1103" preserveAspectRatio="xMidYMid" viewBox="0 0 1920 1103" style="z-index:1;margin-right:-2px;display:block;background-color:rgb(241, 242, 243);animation-play-state:paused" ><g transform="translate(960,551.5) scale(-1,-1) translate(-960,-551.5)" style="transform:matrix(-1, 0, 0, -1, 1920, 1103);animation-play-state:paused" ><linearGradient id="lg-0.3342679169543519" x1="0" x2="1" y1="0" y2="0" style="animation-play-state:paused" ><stop stop-color="#152d64" offset="0" style="animation-play-state:paused" ></stop>

  
<stop stop-color="#244aa2" offset="1" style="animation-play-state:paused" ></stop></linearGradient>
<path d="M 0 0 L 0 945.618 Q 192 829.015 384 804.692 T 768 636.686 T 1152 570.29 T 1536 514.171 T 1920 379.6 L 1920 0 Z" fill="url(#lg-0.3342679169543519)" opacity="0.78" style="opacity:0.78;animation-play-state:paused" ></path>
<path d="M 0 0 L 0 885.514 Q 192 798.659 384 767.484 T 768 672.572 T 1152 582.485 T 1536 473.469 T 1920 364.584 L 1920 0 Z" fill="url(#lg-0.3342679169543519)" opacity="0.78" style="opacity:0.78;animation-play-state:paused" ></path>
<path d="M 0 0 L 0 963.677 Q 192 831.375 384 817.897 T 768 662.014 T 1152 565.54 T 1536 453.66 T 1920 401.199 L 1920 0 Z" fill="url(#lg-0.3342679169543519)" opacity="0.78" style="opacity:0.78;animation-play-state:paused" ></path>
<path d="M 0 0 L 0 884.585 Q 192 840.718 384 809.593 T 768 679.307 T 1152 626.386 T 1536 512.242 T 1920 412.585 L 1920 0 Z" fill="url(#lg-0.3342679169543519)" opacity="0.78" style="opacity:0.78;animation-play-state:paused" ></path>
<path d="M 0 0 L 0 872.469 Q 192 860.841 384 817.328 T 768 682.842 T 1152 595.831 T 1536 425.067 T 1920 347.525 L 1920 0 Z" fill="url(#lg-0.3342679169543519)" opacity="0.78" style="opacity:0.78;animation-play-state:paused" ></path></g></svg>