<?xml version="1.0" encoding="utf-8"?><svg xmlns="http://www.w3.org/2000/svg" xmlns:xlink="http://www.w3.org/1999/xlink" width="2202" height="1558" preserveAspectRatio="xMidYMid" viewBox="0 0 2202 1558" style="z-index:1;margin-right:-2px;display:block;background-color:rgb(241, 242, 243);animation-play-state:paused" ><g transform="translate(1101,779) scale(-1,-1) translate(-1101,-779)" style="transform:matrix(-1, 0, 0, -1, 2202, 1558);animation-play-state:paused" ><linearGradient id="lg-0.7882396576968584" x1="0" x2="1" y1="0" y2="0" style="animation-play-state:paused" ><stop stop-color="#152d64" offset="0" style="animation-play-state:paused" ></stop>

  
<stop stop-color="#152d64" offset="1" style="animation-play-state:paused" ></stop></linearGradient>
<path d="M 0 0 L 0 1347.25 Q 550.5 759.784 1101 741.218 T 2202 -27.8666 L 2202 0 Z" fill="url(#lg-0.7882396576968584)" opacity="0.4" style="opacity:0.4;animation-play-state:paused" ></path>
<path d="M 0 0 L 0 1039.64 Q 550.5 1021.39 1101 991.989 T 2202 37.56 L 2202 0 Z" fill="url(#lg-0.7882396576968584)" opacity="0.4" style="opacity:0.4;animation-play-state:paused" ></path>
<path d="M 0 0 L 0 1154.67 Q 550.5 447.975 1101 407.122 T 2202 248.588 L 2202 0 Z" fill="url(#lg-0.7882396576968584)" opacity="0.4" style="opacity:0.4;animation-play-state:paused" ></path>
<path d="M 0 0 L 0 939.128 Q 550.5 834.916 1101 796.26 T 2202 225.097 L 2202 0 Z" fill="url(#lg-0.7882396576968584)" opacity="0.4" style="opacity:0.4;animation-play-state:paused" ></path>
<path d="M 0 0 L 0 1305.68 Q 550.5 900.263 1101 867.367 T 2202 629.766 L 2202 0 Z" fill="url(#lg-0.7882396576968584)" opacity="0.4" style="opacity:0.4;animation-play-state:paused" ></path>
<path d="M 0 0 L 0 1361.97 Q 550.5 902.962 1101 872.514 T 2202 74.2051 L 2202 0 Z" fill="url(#lg-0.7882396576968584)" opacity="0.4" style="opacity:0.4;animation-play-state:paused" ></path>
<path d="M 0 0 L 0 1402.95 Q 550.5 1127.75 1101 1097.89 T 2202 711.572 L 2202 0 Z" fill="url(#lg-0.7882396576968584)" opacity="0.4" style="opacity:0.4;animation-play-state:paused" ></path>
<path d="M 0 0 L 0 1097.39 Q 550.5 1005.02 1101 963.492 T 2202 -156.441 L 2202 0 Z" fill="url(#lg-0.7882396576968584)" opacity="0.4" style="opacity:0.4;animation-play-state:paused" ></path>
<path d="M 0 0 L 0 1220.84 Q 550.5 823.878 1101 796.408 T 2202 173.083 L 2202 0 Z" fill="url(#lg-0.7882396576968584)" opacity="0.4" style="opacity:0.4;animation-play-state:paused" ></path>
<path d="M 0 0 L 0 1286.05 Q 550.5 441.254 1101 407.125 T 2202 190.868 L 2202 0 Z" fill="url(#lg-0.7882396576968584)" opacity="0.4" style="opacity:0.4;animation-play-state:paused" ></path></g></svg>