<?xml version="1.0" encoding="utf-8"?><svg xmlns="http://www.w3.org/2000/svg" xmlns:xlink="http://www.w3.org/1999/xlink" width="1920" height="931" preserveAspectRatio="xMidYMid" viewBox="0 0 1920 931" style="z-index:1;margin-right:-2px;display:block;background-color:rgb(241, 242, 243);animation-play-state:paused" ><g transform="translate(960,465.5) scale(1,1) translate(-960,-465.5)" style="transform:matrix(1, 0, 0, 1, 0, 0);animation-play-state:paused" ><linearGradient id="lg-0.47880698278894407" x1="0" x2="1" y1="0" y2="0" style="animation-play-state:paused" ><stop stop-color="#4a54e8" offset="0" style="animation-play-state:paused" ></stop>

  
<stop stop-color="#199efb" offset="1" style="animation-play-state:paused" ></stop></linearGradient>
<path d="M 0 0 L 0 854.121 Q 192 776.893 384 748.086 T 768 721.906 T 1152 645.337 T 1536 574.74 T 1920 384.355 L 1920 0 Z" fill="url(#lg-0.47880698278894407)" opacity="0.4" style="opacity:0.4;animation-play-state:paused" ></path>
<path d="M 0 0 L 0 872.135 Q 192 793.5 384 771.852 T 768 650.405 T 1152 617.349 T 1536 506.12 T 1920 411.752 L 1920 0 Z" fill="url(#lg-0.47880698278894407)" opacity="0.4" style="opacity:0.4;animation-play-state:paused" ></path>
<path d="M 0 0 L 0 880.263 Q 192 780.146 384 762.258 T 768 644.187 T 1152 642.17 T 1536 506.528 T 1920 509.435 L 1920 0 Z" fill="url(#lg-0.47880698278894407)" opacity="0.4" style="opacity:0.4;animation-play-state:paused" ></path>
<path d="M 0 0 L 0 761.386 Q 192 752.844 384 727 T 768 575.121 T 1152 553.598 T 1536 461.646 T 1920 438.298 L 1920 0 Z" fill="url(#lg-0.47880698278894407)" opacity="0.4" style="opacity:0.4;animation-play-state:paused" ></path>
<path d="M 0 0 L 0 814.794 Q 192 711.535 384 689.743 T 768 622.151 T 1152 598.196 T 1536 447.052 T 1920 449.03 L 1920 0 Z" fill="url(#lg-0.47880698278894407)" opacity="0.4" style="opacity:0.4;animation-play-state:paused" ></path></g></svg>